HIERARCHY
ROOT hip
{
	OFFSET 0.000000 0.000000 0.000000 
	CHANNELS 6 Xposition Yposition Zposition Xrotation Zrotation Yrotation
	JOINT abdomen
	{
		OFFSET 0.000000 3.402643 0.000000 
		CHANNELS 3 Xrotation Zrotation Yrotation
		JOINT chest
		{
			OFFSET 0.000000 8.438565 -0.680529 
			CHANNELS 3 Xrotation Zrotation Yrotation
			JOINT neck
			{
				OFFSET 0.000000 10.207942 -0.272212 
				CHANNELS 3 Xrotation Zrotation Yrotation
				JOINT head
				{
					OFFSET 0.000000 3.130431 0.000000 
					CHANNELS 3 Xrotation Zrotation Yrotation
					End Site
					{
						OFFSET 0.000000 3.130435 0.000000 
					}
				}
			}
			JOINT lCollar
			{
				OFFSET 3.470700 6.669187 -0.816635 
				CHANNELS 3 Yrotation Zrotation Xrotation
				JOINT lShldr
				{
					OFFSET 3.198488 0.000000 0.000000 
					CHANNELS 3 Zrotation Yrotation Xrotation
					JOINT lForeArm
					{
						OFFSET 10.139888 0.000000 0.000000 
						CHANNELS 3 Yrotation Zrotation Xrotation
						JOINT lHand
						{
							OFFSET 8.370511 0.000000 0.000000 
							CHANNELS 3 Zrotation Yrotation Xrotation
							End Site
							{
								OFFSET 4.083176 0.000000 0.000000 
							}
						}
					}
				}
			}
			JOINT rCollar
			{
				OFFSET -3.470700 6.669187 -0.816635 
				CHANNELS 3 Yrotation Zrotation Xrotation
				JOINT rShldr
				{
					OFFSET -3.198488 0.000000 0.000000 
					CHANNELS 3 Zrotation Yrotation Xrotation
					JOINT rForeArm
					{
						OFFSET -10.139888 0.000000 0.000000 
						CHANNELS 3 Yrotation Zrotation Xrotation
						JOINT rHand
						{
							OFFSET -8.370511 0.000000 0.000000 
							CHANNELS 3 Zrotation Yrotation Xrotation
							End Site
							{
								OFFSET -4.083176 0.000000 0.000000 
							}
						}
					}
				}
			}
		}
	}
	JOINT lThigh
	{
		OFFSET 5.308129 -1.633274 1.361059 
		CHANNELS 3 Xrotation Zrotation Yrotation
		JOINT lShin
		{
			OFFSET -2.041588 -20.007561 0.000000 
			CHANNELS 3 Xrotation Zrotation Yrotation
			JOINT lFoot
			{
				OFFSET 0.000000 -19.190928 -1.224953 
				CHANNELS 3 Xrotation Yrotation Zrotation
				End Site
				{
					OFFSET 0.000000 -2.449906 4.627600 
				}
			}
		}
	}
	JOINT rThigh
	{
		OFFSET -5.308129 -1.633274 1.361059 
		CHANNELS 3 Xrotation Zrotation Yrotation
		JOINT rShin
		{
			OFFSET 2.041588 -20.007561 0.000000 
			CHANNELS 3 Xrotation Zrotation Yrotation
			JOINT rFoot
			{
				OFFSET 0.000000 -19.190928 -1.224953 
				CHANNELS 3 Xrotation Yrotation Zrotation
				End Site
				{
					OFFSET 0.000000 -2.449906 4.627600 
				}
			}
		}
	}
}
MOTION
Frames: 8
Frame Time: 0.033333
-16.185589 52.378742 -15.454818 175.419922 177.519531 0.850032 34.140198 -7.926074 -17.388439 -16.562500 10.234376 -1.591797 51.553619 8.070152 2.616707 -65.234375 4.667969 -12.001953 2.000000 -2.000000 0.000000 -34.804688 7.177735 -29.656982 -90.677444 0.197540 -2.873386 31.830156 -5.842052 16.830719 -2.000000 2.000000 0.000000 51.210941 -39.160156 7.425474 86.239250 0.310397 -3.029756 -40.340508 -56.009079 20.463505 -9.675926 20.225153 15.203839 34.017303 -4.831197 -3.182249 13.066212 8.919004 4.187423 -13.370509 -3.954278 8.644674 16.196272 5.535361 1.955516 1.229763 0.480829 14.716884 
-15.045214 51.935905 -15.094046 176.826187 177.167969 2.480951 35.241203 -9.247748 -16.533340 -16.962891 9.394531 -1.318359 51.553619 8.070152 2.616707 -66.816406 2.060547 -9.960937 2.000000 -2.000000 0.000000 -37.763672 10.253906 -31.904299 -88.756287 0.396630 -2.982717 33.925091 -5.112300 16.150705 -2.000000 2.000000 0.000000 51.035156 -37.392578 10.365164 85.713051 0.117665 -3.080036 -41.430351 -57.003460 21.601086 -12.527868 23.266994 12.719221 37.710838 -4.494138 -3.658698 22.161036 5.749369 5.877415 -13.606215 -2.743681 4.496633 19.714607 5.399764 2.437768 -0.849345 1.710198 14.177698 
-13.824548 51.477242 -14.693555 178.232437 176.816406 4.121636 36.330151 -10.623122 -15.541390 -17.353516 8.544923 -1.035156 51.553619 8.070152 2.616707 -68.789063 -0.488281 -8.125083 2.000000 -2.000000 0.000000 -40.800785 13.564452 -34.736328 -87.325752 -0.100985 -3.129871 36.550385 -4.780724 14.850561 -2.000000 2.000000 0.000000 51.064453 -35.136719 11.840086 85.712189 0.291462 -3.040629 -41.690739 -57.033848 22.144604 -14.804281 25.906765 10.195095 39.635952 -4.548910 -4.045086 30.309450 3.774347 8.661166 -13.789741 -1.493491 0.160190 23.629078 5.301979 2.897764 -2.535985 2.303942 13.658489 
-12.698750 51.097652 -14.337887 179.462906 176.640625 6.113854 37.570538 -12.158257 -14.268156 -17.900393 7.890625 -0.556640 51.553619 8.070152 2.616707 -70.957031 -2.773437 -6.005860 2.000000 -2.000000 0.000000 -43.750000 16.669922 -37.626953 -86.097649 0.109232 -2.878041 38.817909 -3.811387 13.620965 -2.000000 2.000000 0.000000 51.210941 -33.535160 12.582497 86.600616 0.115410 -3.041034 -41.950016 -56.143635 22.416460 -16.686924 26.234571 8.856009 42.297966 -4.344905 -3.902644 28.668121 6.383480 9.732418 -14.105392 -0.498209 -2.840103 26.617737 5.402994 2.850970 -3.907001 3.008537 14.366719 
-11.704226 50.314758 -14.668531 0.527344 3.486323 -171.874390 38.653606 -13.601212 -13.170853 -18.281250 7.031250 -0.068359 51.553619 8.070152 2.616707 -73.330078 -4.990233 -3.867188 2.000000 -2.000000 0.000000 -46.435547 19.296875 -40.104198 -84.868546 0.125907 -2.927899 40.330925 -2.905365 12.486912 -2.000000 2.000000 0.000000 50.712887 -32.587887 13.076172 87.830269 -0.032521 -3.020257 -42.009304 -54.765446 22.640789 -18.366638 25.610796 7.883638 45.103275 -4.153268 -4.525381 17.475916 11.860625 6.730983 -13.871856 0.507589 -5.732030 29.437822 5.099998 2.913511 -9.492866 3.164674 13.393840 
-10.734484 49.879818 -14.783929 1.406250 3.681641 -169.530624 39.399849 -15.187604 -12.146333 -18.671875 6.347656 0.469830 51.553619 8.070152 2.616707 -75.742188 -6.962890 -1.269531 2.000000 -2.000000 0.000000 -49.199215 21.474609 -43.346035 -83.815216 0.142584 -2.977757 39.361156 -2.345270 11.945526 -2.000000 2.000000 0.000000 50.136723 -31.542971 13.490986 89.234879 -0.016408 -2.960656 -42.495914 -53.561939 23.105999 -19.469538 24.555677 7.611181 46.846668 -3.889546 -4.557755 3.420879 18.276426 4.691628 -14.092779 1.162409 -8.584663 32.290012 5.057735 3.045672 -11.429031 3.082041 13.227778 
-9.912559 50.014259 -15.208109 1.757813 3.681641 -167.050156 39.612801 -16.497065 -11.255475 -19.042969 5.673828 0.997059 51.553619 8.070152 2.616707 -78.203125 -8.837890 2.031250 2.000000 -2.000000 0.000000 -52.431644 23.134766 -47.333984 -82.925179 -0.176320 -2.910365 37.106350 -1.351201 11.777795 -2.000000 2.000000 0.000000 48.994141 -29.873049 14.145526 90.302345 0.009295 -3.066729 -43.932312 -53.035374 23.191078 -19.755184 23.758455 8.373916 46.688820 -4.218884 -4.378440 -6.194319 22.696428 4.376685 -12.672167 1.826224 -11.215428 30.855997 5.155684 3.071041 -10.790667 2.521714 12.670721 
-9.419677 50.362206 -15.420804 1.572266 3.671875 -164.247421 39.285103 -17.723570 -10.561293 -19.404297 4.990234 1.367188 51.553619 8.070152 2.616707 -80.488281 -10.498047 6.257987 2.000000 -2.000000 0.000000 -55.556641 25.019529 -51.392357 -82.233475 -0.004219 -2.979018 35.237919 -0.408588 11.554564 -2.000000 2.000000 0.000000 47.802734 -29.277344 15.649526 91.527336 -0.157978 -2.880842 -45.446968 -52.660576 22.780270 -18.623095 23.252008 11.649279 43.536335 -4.494532 -3.969106 -8.288191 21.535515 4.591672 -12.571105 1.846391 -14.512161 30.489738 4.822875 2.926084 -8.002129 2.655773 12.783886 
